<svg width="22" height="10" viewBox="0 0 22 10" fill="none" xmlns="http://www.w3.org/2000/svg">
<path d="M1.56187 9.65932C1.16151 9.45303 0.834195 9.13329 0.622821 8.74198C0.34021 8.16026 0.22566 7.51403 0.291566 6.87323V3.12796C0.225793 2.48748 0.340341 1.8416 0.622821 1.26018C0.833942 0.868693 1.16132 0.548881 1.56187 0.342836C2.15621 0.0659256 2.81676 -0.0464472 3.47181 0.0179214H16.6026C17.2582 -0.0469604 17.9195 0.0650768 18.5145 0.341863C18.9144 0.548055 19.2413 0.867432 19.4526 1.25824C19.7349 1.8404 19.8494 2.48685 19.7838 3.12796V6.87323C19.8498 7.51403 19.7352 8.16026 19.4526 8.74198C19.2415 9.13293 18.9145 9.45236 18.5145 9.65835C17.9197 9.93468 17.2589 10.0467 16.6036 9.98229H3.47181C3.35177 9.99397 3.23174 9.9998 3.11171 9.9998C2.57564 10.0003 2.04619 9.88403 1.56187 9.65932ZM20.6712 3.21551C20.6712 3.21551 22.0002 3.87701 22.0002 4.94806C22.0002 6.01911 20.6712 6.68062 20.6712 6.68062V3.21551Z" fill="#181D27"/>
<path d="M16.4208 1.67969H3.65411C2.77509 1.67969 2.0625 2.37655 2.0625 3.23616V6.76645C2.0625 7.62607 2.77509 8.32293 3.65411 8.32293H16.4208C17.2999 8.32293 18.0124 7.62607 18.0124 6.76645V3.23616C18.0124 2.37655 17.2999 1.67969 16.4208 1.67969Z" fill="#181D27"/>
</svg>
