<svg width="14" height="9" viewBox="0 0 14 9" fill="none" xmlns="http://www.w3.org/2000/svg">
<path d="M11.66 8.63131C11.4103 8.62368 11.1738 8.51957 11.0025 8.34179C10.8311 8.16401 10.7388 7.92705 10.7458 7.68284V1.11645C10.7388 0.872232 10.8311 0.635274 11.0025 0.457491C11.1738 0.279708 11.4103 0.175597 11.66 0.167969L12.1175 0.167969C12.3672 0.175597 12.6037 0.279708 12.775 0.457491C12.9464 0.635274 13.0387 0.872232 13.0317 1.11645V7.68284C13.0387 7.92705 12.9464 8.16401 12.775 8.34179C12.6037 8.51957 12.3672 8.62368 12.1175 8.63131H11.66ZM8.07882 8.63131C7.82895 8.62394 7.59226 8.51994 7.4207 8.34213C7.24913 8.16431 7.15668 7.92721 7.16365 7.68284V3.0134C7.15668 2.76903 7.24913 2.53192 7.4207 2.35411C7.59226 2.1763 7.82895 2.0723 8.07882 2.06493H8.53542C8.7853 2.0723 9.02198 2.1763 9.19355 2.35411C9.36512 2.53192 9.45756 2.76903 9.4506 3.0134V7.68284C9.45756 7.92721 9.36512 8.16431 9.19355 8.34213C9.02198 8.51994 8.7853 8.62394 8.53542 8.63131H8.07882ZM4.57628 8.63131C4.3264 8.62394 4.08972 8.51994 3.91815 8.34213C3.74658 8.16431 3.65414 7.92721 3.66111 7.68284V4.8374C3.65387 4.59286 3.7462 4.3555 3.91779 4.17748C4.08939 3.99946 4.32623 3.89532 4.57628 3.88795H5.03288C5.28293 3.89532 5.51977 3.99946 5.69137 4.17748C5.86296 4.3555 5.95528 4.59286 5.94805 4.8374V7.68284C5.95502 7.92721 5.86257 8.16431 5.69101 8.34213C5.51944 8.51994 5.28275 8.62394 5.03288 8.63131H4.57628ZM0.914578 8.63131C0.664875 8.62368 0.428446 8.51957 0.257091 8.34179C0.0857359 8.16401 -0.00657053 7.92705 0.000395796 7.68284V6.4182C-0.00683867 6.17382 0.0853481 5.93661 0.256731 5.75861C0.428115 5.58062 0.664698 5.47637 0.914578 5.46875H1.37217C1.62205 5.47637 1.85863 5.58062 2.03001 5.75861C2.2014 5.93661 2.29358 6.17382 2.28635 6.4182V7.68284C2.29332 7.92705 2.20101 8.16401 2.02965 8.34179C1.8583 8.51957 1.62187 8.62368 1.37217 8.63131H0.914578Z" fill="#181D27"/>
</svg>
