<svg width="16" height="16" viewBox="0 0 16 16" fill="none" xmlns="http://www.w3.org/2000/svg">
<path d="M8.00069 7.33333C7.2463 7.33333 6.52281 7.05238 5.98937 6.55229C5.45593 6.05219 5.15625 5.37391 5.15625 4.66667C5.15625 3.95942 5.45593 3.28115 5.98937 2.78105C6.52281 2.28095 7.2463 2 8.00069 2C8.75509 2 9.47858 2.28095 10.012 2.78105C10.5455 3.28115 10.8451 3.95942 10.8451 4.66667C10.8451 5.37391 10.5455 6.05219 10.012 6.55229C9.47858 7.05238 8.75509 7.33333 8.00069 7.33333ZM8.00069 3.06667C7.05634 3.06667 6.29403 3.78133 6.29403 4.66667C6.29403 5.552 7.05634 6.26667 8.00069 6.26667C8.94505 6.26667 9.70736 5.552 9.70736 4.66667C9.70736 3.78133 8.94505 3.06667 8.00069 3.06667Z" fill="#181D27"/>
<path d="M14.4 11.75C14.1013 11.75 13.8667 11.5117 13.8667 11.2083C13.8667 10.905 14.1013 10.6667 14.4 10.6667C14.6987 10.6667 14.9333 10.4283 14.9333 10.125C14.9333 9.40671 14.6524 8.71783 14.1523 8.20992C13.6522 7.70201 12.9739 7.41667 12.2667 7.41667H11.2C10.9013 7.41667 10.6667 7.17833 10.6667 6.875C10.6667 6.57167 10.9013 6.33333 11.2 6.33333C12.0853 6.33333 12.8 5.6075 12.8 4.70833C12.8 3.80917 12.0853 3.08333 11.2 3.08333C10.9013 3.08333 10.6667 2.845 10.6667 2.54167C10.6667 2.23833 10.9013 2 11.2 2C11.9072 2 12.5855 2.28534 13.0856 2.79325C13.5857 3.30116 13.8667 3.99004 13.8667 4.70833C13.8667 5.38 13.632 5.98667 13.2267 6.46333C14.816 6.89667 16 8.37 16 10.125C16 11.0242 15.2853 11.75 14.4 11.75ZM1.6 11.75C0.714667 11.75 0 11.0242 0 10.125C0 8.37 1.17333 6.89667 2.77333 6.46333C2.37867 5.98667 2.13333 5.38 2.13333 4.70833C2.13333 3.99004 2.41428 3.30116 2.91438 2.79325C3.41448 2.28534 4.09276 2 4.8 2C5.09867 2 5.33333 2.23833 5.33333 2.54167C5.33333 2.845 5.09867 3.08333 4.8 3.08333C3.91467 3.08333 3.2 3.80917 3.2 4.70833C3.2 5.6075 3.91467 6.33333 4.8 6.33333C5.09867 6.33333 5.33333 6.57167 5.33333 6.875C5.33333 7.17833 5.09867 7.41667 4.8 7.41667H3.73333C3.02609 7.41667 2.34781 7.70201 1.84772 8.20992C1.34762 8.71783 1.06667 9.40671 1.06667 10.125C1.06667 10.4283 1.30133 10.6667 1.6 10.6667C1.89867 10.6667 2.13333 10.905 2.13333 11.2083C2.13333 11.5117 1.89867 11.75 1.6 11.75ZM11.2 15H4.8C3.91467 15 3.2 14.2742 3.2 13.375V12.2917C3.2 10.2008 4.87467 8.5 6.93333 8.5H9.06667C11.1253 8.5 12.8 10.2008 12.8 12.2917V13.375C12.8 14.2742 12.0853 15 11.2 15ZM6.93333 9.58333C6.22609 9.58333 5.54781 9.86868 5.04772 10.3766C4.54762 10.8845 4.26667 11.5734 4.26667 12.2917V13.375C4.26667 13.6783 4.50133 13.9167 4.8 13.9167H11.2C11.4987 13.9167 11.7333 13.6783 11.7333 13.375V12.2917C11.7333 11.5734 11.4524 10.8845 10.9523 10.3766C10.4522 9.86868 9.77391 9.58333 9.06667 9.58333H6.93333Z" fill="#181D27"/>
</svg>
