<svg width="120" height="115" viewBox="0 0 120 115" fill="none" xmlns="http://www.w3.org/2000/svg">
<circle cx="64.5" cy="72.5" r="64.5" fill="#F9F5FF"/>
<path d="M60.5 59.5625C64.0638 59.5625 67.4817 58.1468 70.0017 55.6267C72.5218 53.1067 73.9375 49.6888 73.9375 46.125C73.9375 42.5612 72.5218 39.1433 70.0017 36.6233C67.4817 34.1032 64.0638 32.6875 60.5 32.6875C56.9362 32.6875 53.5183 34.1032 50.9983 36.6233C48.4782 39.1433 47.0625 42.5612 47.0625 46.125C47.0625 49.6888 48.4782 53.1067 50.9983 55.6267C53.5183 58.1468 56.9362 59.5625 60.5 59.5625ZM60.5 59.5625C65.9099 59.5625 70.6373 61.605 73.9993 64.9993M60.5 59.5625C49.75 59.5625 41.6875 67.625 41.6875 78.375V91.8125H60.5M100.813 70.3125L92.75 62.25L76.625 78.375M86.0313 68.9688L94.0938 77.0313M65.875 82.4063C65.8757 84.1889 66.5845 85.8982 67.8456 87.1582C69.1066 88.4183 70.8165 89.1257 72.5991 89.125C74.3818 89.1243 76.0911 88.4155 77.3511 87.1544C78.6111 85.8934 79.3186 84.1835 79.3179 82.4009C79.3172 80.6182 78.6083 78.9089 77.3473 77.6489C76.0863 76.3889 74.3764 75.6814 72.5938 75.6821C70.8111 75.6828 69.1018 76.3917 67.8418 77.6527C66.5818 78.9137 65.8743 80.6236 65.875 82.4063Z" stroke="#D6BBFB" stroke-width="4"/>
</svg>
