<svg width="16" height="16" viewBox="0 0 16 16" fill="none" xmlns="http://www.w3.org/2000/svg">
<g clip-path="url(#clip0_940_26694)">
<path d="M7.99414 0.628908C6.66099 0.629155 5.35289 0.991048 4.20917 1.67603C3.06546 2.36102 2.12899 3.34343 1.49953 4.51862C0.870063 5.6938 0.571189 7.01773 0.634745 8.34936C0.6983 9.68099 1.1219 10.9704 1.86043 12.0803L0.625 15.366L4.76214 14.6175C5.75851 15.1049 6.85207 15.3612 7.96128 15.3671C9.07048 15.373 10.1667 15.1284 11.1682 14.6516C12.1697 14.1748 13.0507 13.4781 13.7454 12.6134C14.4401 11.7486 14.9306 10.7382 15.1804 9.65751C15.4302 8.57678 15.4328 7.45361 15.188 6.37174C14.9432 5.28987 14.4574 4.27721 13.7666 3.40929C13.0759 2.54137 12.1982 1.84057 11.1989 1.35915C10.1996 0.877732 9.10336 0.628113 7.99414 0.628908Z" stroke="#181D27" stroke-width="1.5" stroke-linecap="round" stroke-linejoin="round"/>
<path d="M6.29688 6.29823C6.29688 5.96189 6.39661 5.6331 6.58347 5.35344C6.77033 5.07378 7.03593 4.85582 7.34667 4.72711C7.6574 4.59839 7.99933 4.56472 8.32921 4.63033C8.65909 4.69595 8.9621 4.85791 9.19993 5.09574C9.43776 5.33357 9.59972 5.63658 9.66534 5.96646C9.73096 6.29634 9.69728 6.63827 9.56857 6.94901C9.43986 7.25975 9.22189 7.52534 8.94223 7.7122C8.66258 7.89906 8.33379 7.9988 7.99745 7.9988V9.13251M7.99973 11.9668C7.92456 11.9668 7.85247 11.9369 7.79932 11.8838C7.74616 11.8306 7.7163 11.7585 7.7163 11.6834C7.7163 11.6082 7.74616 11.5361 7.79932 11.483C7.85247 11.4298 7.92456 11.3999 7.99973 11.3999C8.0749 11.3999 8.14699 11.4298 8.20015 11.483C8.2533 11.5361 8.28316 11.6082 8.28316 11.6834C8.28316 11.7585 8.2533 11.8306 8.20015 11.8838C8.14699 11.9369 8.0749 11.9668 7.99973 11.9668Z" stroke="#181D27" stroke-width="1.5" stroke-linecap="round" stroke-linejoin="round"/>
</g>
<defs>
<clipPath id="clip0_940_26694">
<rect width="16" height="16" fill="white"/>
</clipPath>
</defs>
</svg>
