<svg width="16" height="13" viewBox="0 0 16 13" fill="none" xmlns="http://www.w3.org/2000/svg">
<path d="M14.4 9.75C14.1013 9.75 13.8667 9.51167 13.8667 9.20833C13.8667 8.905 14.1013 8.66667 14.4 8.66667C14.6987 8.66667 14.9333 8.42833 14.9333 8.125C14.9333 7.40671 14.6524 6.71783 14.1523 6.20992C13.6522 5.70201 12.9739 5.41667 12.2667 5.41667H11.2C10.9013 5.41667 10.6667 5.17833 10.6667 4.875C10.6667 4.57167 10.9013 4.33333 11.2 4.33333C12.0853 4.33333 12.8 3.6075 12.8 2.70833C12.8 1.80917 12.0853 1.08333 11.2 1.08333C10.9013 1.08333 10.6667 0.845 10.6667 0.541667C10.6667 0.238333 10.9013 0 11.2 0C11.9072 0 12.5855 0.285341 13.0856 0.793252C13.5857 1.30116 13.8667 1.99004 13.8667 2.70833C13.8667 3.38 13.632 3.98667 13.2267 4.46333C14.816 4.89667 16 6.37 16 8.125C16 9.02417 15.2853 9.75 14.4 9.75ZM1.6 9.75C0.714667 9.75 0 9.02417 0 8.125C0 6.37 1.17333 4.89667 2.77333 4.46333C2.37867 3.98667 2.13333 3.38 2.13333 2.70833C2.13333 1.99004 2.41428 1.30116 2.91438 0.793252C3.41448 0.285341 4.09276 0 4.8 0C5.09867 0 5.33333 0.238333 5.33333 0.541667C5.33333 0.845 5.09867 1.08333 4.8 1.08333C3.91467 1.08333 3.2 1.80917 3.2 2.70833C3.2 3.6075 3.91467 4.33333 4.8 4.33333C5.09867 4.33333 5.33333 4.57167 5.33333 4.875C5.33333 5.17833 5.09867 5.41667 4.8 5.41667H3.73333C3.02609 5.41667 2.34781 5.70201 1.84772 6.20992C1.34762 6.71783 1.06667 7.40671 1.06667 8.125C1.06667 8.42833 1.30133 8.66667 1.6 8.66667C1.89867 8.66667 2.13333 8.905 2.13333 9.20833C2.13333 9.51167 1.89867 9.75 1.6 9.75ZM11.2 13H4.8C3.91467 13 3.2 12.2742 3.2 11.375V10.2917C3.2 8.20083 4.87467 6.5 6.93333 6.5H9.06667C11.1253 6.5 12.8 8.20083 12.8 10.2917V11.375C12.8 12.2742 12.0853 13 11.2 13ZM6.93333 7.58333C6.22609 7.58333 5.54781 7.86868 5.04772 8.37659C4.54762 8.8845 4.26667 9.57337 4.26667 10.2917V11.375C4.26667 11.6783 4.50133 11.9167 4.8 11.9167H11.2C11.4987 11.9167 11.7333 11.6783 11.7333 11.375V10.2917C11.7333 9.57337 11.4524 8.8845 10.9523 8.37659C10.4522 7.86868 9.77391 7.58333 9.06667 7.58333H6.93333Z" fill="#181D27"/>
</svg>
