<svg width="16" height="16" viewBox="0 0 16 16" fill="none" xmlns="http://www.w3.org/2000/svg">
<path d="M6.00038 10.2705C6.55465 10.2704 7.09324 10.4444 7.53146 10.7652C7.96969 11.086 8.2827 11.5354 8.42126 12.0427H15.3739C15.5301 12.0425 15.6807 12.0975 15.7961 12.1969C15.9115 12.2964 15.9833 12.4331 15.9974 12.5801C16.0116 12.7271 15.9669 12.8738 15.8723 12.9913C15.7778 13.1088 15.6401 13.1885 15.4864 13.2148L15.3739 13.2242L8.42126 13.2254C8.28316 13.7332 7.97036 14.1831 7.53209 14.5044C7.09382 14.8256 6.55497 15 6.00038 15C5.44579 15 4.90695 14.8256 4.46868 14.5044C4.03041 14.1831 3.71761 13.7332 3.57951 13.2254L1.62606 13.2242C1.4699 13.2245 1.31929 13.1695 1.20389 13.07C1.08849 12.9706 1.01667 12.8339 1.00256 12.6869C0.988448 12.5398 1.03308 12.3932 1.12766 12.2757C1.22224 12.1582 1.35991 12.0785 1.51357 12.0522L1.62606 12.0427H3.57951C3.71807 11.5354 4.03108 11.086 4.4693 10.7652C4.90753 10.4444 5.44612 10.2704 6.00038 10.2705ZM6.00038 11.452C5.66891 11.452 5.35102 11.5765 5.11664 11.798C4.88225 12.0196 4.75058 12.3201 4.75058 12.6335C4.75058 12.9468 4.88225 13.2474 5.11664 13.4689C5.35102 13.6905 5.66891 13.815 6.00038 13.815C6.33185 13.815 6.64975 13.6905 6.88413 13.4689C7.11852 13.2474 7.25019 12.9468 7.25019 12.6335C7.25019 12.3201 7.11852 12.0196 6.88413 11.798C6.64975 11.5765 6.33185 11.452 6.00038 11.452ZM10.9996 2C11.5539 1.99987 12.0925 2.17389 12.5307 2.4947C12.9689 2.81551 13.2819 3.26492 13.4205 3.77225H15.3739C15.5301 3.77198 15.6807 3.82699 15.7961 3.92644C15.9115 4.0259 15.9833 4.1626 15.9974 4.30962C16.0116 4.45664 15.9669 4.60333 15.8723 4.72079C15.7778 4.83826 15.6401 4.91799 15.4864 4.9443L15.3739 4.95375L13.4205 4.95493C13.2824 5.46269 12.9696 5.91262 12.5313 6.23389C12.093 6.55515 11.5542 6.72951 10.9996 6.72951C10.445 6.72951 9.90618 6.55515 9.46791 6.23389C9.02964 5.91262 8.71684 5.46269 8.57874 4.95493L1.62606 4.95375C1.4699 4.95402 1.31929 4.89901 1.20389 4.79955C1.08849 4.70009 1.01667 4.5634 1.00256 4.41638C0.988448 4.26936 1.03308 4.12267 1.12766 4.0052C1.22224 3.88774 1.35991 3.808 1.51357 3.7817L1.62606 3.77225H8.57874C8.7173 3.26492 9.03031 2.81551 9.46854 2.4947C9.90676 2.17389 10.4454 1.99987 10.9996 2ZM10.9996 3.1815C10.6681 3.1815 10.3503 3.30598 10.1159 3.52755C9.88148 3.74913 9.74981 4.04964 9.74981 4.363C9.74981 4.67635 9.88148 4.97687 10.1159 5.19844C10.3503 5.42002 10.6681 5.5445 10.9996 5.5445C11.3311 5.5445 11.649 5.42002 11.8834 5.19844C12.1177 4.97687 12.2494 4.67635 12.2494 4.363C12.2494 4.04964 12.1177 3.74913 11.8834 3.52755C11.649 3.30598 11.3311 3.1815 10.9996 3.1815Z" fill="#181D27"/>
</svg>
