<svg width="16" height="16" viewBox="0 0 16 16" fill="none" xmlns="http://www.w3.org/2000/svg">
<path d="M8.66406 9.66667C8.66406 9.48986 8.7343 9.32029 8.85932 9.19526C8.98435 9.07024 9.15392 9 9.33073 9H11.3307C11.5075 9 11.6771 9.07024 11.8021 9.19526C11.9272 9.32029 11.9974 9.48986 11.9974 9.66667C11.9974 9.84348 11.9272 10.013 11.8021 10.1381C11.6771 10.2631 11.5075 10.3333 11.3307 10.3333H9.33073C9.15392 10.3333 8.98435 10.2631 8.85932 10.1381C8.7343 10.013 8.66406 9.84348 8.66406 9.66667Z" fill="#181D27"/>
<path d="M11.9964 2H4.00195C3.55919 2 3.19092 2 2.88885 2.02483C2.57436 2.04966 2.27974 2.10593 2.00085 2.24828C1.57253 2.46649 1.2243 2.81471 1.00609 3.24303C0.863744 3.52193 0.807468 3.81655 0.78264 4.13103C0.757812 4.4331 0.757812 4.80138 0.757812 5.24414V10.7559C0.757812 11.1986 0.757812 11.5669 0.78264 11.869C0.807468 12.1834 0.863744 12.4781 1.00609 12.757C1.2243 13.1853 1.57253 13.5335 2.00085 13.7517C2.27974 13.8941 2.57436 13.9503 2.88885 13.9752C3.19092 14 3.55919 14 4.00195 14H11.9964C12.4392 14 12.8075 14 13.1095 13.9752C13.424 13.9503 13.7186 13.8941 13.9975 13.7517C14.4257 13.5337 14.7739 13.1858 14.9923 12.7578C15.1346 12.4781 15.1909 12.1834 15.2157 11.869C15.2406 11.5669 15.2406 11.1986 15.2406 10.7567V5.24414C15.2406 4.80138 15.2406 4.4331 15.2157 4.13103C15.1909 3.81655 15.1346 3.52193 14.9923 3.24303C14.7745 2.81497 14.4269 2.46677 13.9992 2.24828C13.7195 2.10593 13.4248 2.04966 13.1104 2.02483C12.8083 2 12.4392 2 11.9964 2ZM2.56443 3.35393C2.63892 3.31586 2.7523 3.2811 2.98981 3.26207C3.23478 3.24221 3.55257 3.24138 4.02678 3.24138H11.9716C12.445 3.24138 12.7636 3.24138 13.0077 3.26207C13.2461 3.2811 13.3595 3.31586 13.434 3.35393C13.6293 3.45324 13.7873 3.61131 13.8866 3.80662C13.9247 3.8811 13.9595 3.99448 13.9785 4.232C13.9959 4.44717 13.9984 4.71945 13.9992 5.10345H1.99919C1.99919 4.71945 2.0025 4.44717 2.01988 4.232C2.03892 3.99448 2.07367 3.8811 2.11174 3.80662C2.21098 3.61165 2.36947 3.45317 2.56443 3.35393ZM1.99919 6.75862H13.9992V10.731C13.9992 11.2044 13.9992 11.523 13.9785 11.7672C13.9595 12.0055 13.9247 12.1189 13.8866 12.1934C13.7874 12.3883 13.6289 12.5468 13.434 12.6461C13.3595 12.6841 13.2461 12.7189 13.0077 12.7379C12.7636 12.7578 12.445 12.7586 11.9716 12.7586H4.02678C3.5534 12.7586 3.23478 12.7586 2.98981 12.7379C2.7523 12.7189 2.63892 12.6841 2.56443 12.6461C2.36947 12.5468 2.21098 12.3883 2.11174 12.1934C2.07367 12.1189 2.03892 12.0055 2.01988 11.7672C2.00002 11.523 1.99919 11.2044 1.99919 10.731V6.75862Z" fill="#181D27"/>
</svg>
