<svg width="16" height="16" viewBox="0 0 16 16" fill="none" xmlns="http://www.w3.org/2000/svg">
<g clip-path="url(#clip0_940_26670)">
<path d="M12.8909 5.05058L13.3166 4.62339C13.4662 4.4732 13.583 4.2935 13.6595 4.09574C13.7359 3.89797 13.7704 3.68645 13.7607 3.47464C13.751 3.26283 13.6973 3.05535 13.6031 2.86541C13.5089 2.67546 13.3762 2.50719 13.2134 2.37131C11.5973 1.01778 9.60533 0.191816 7.50561 0.00458564L7.36806 4.26025e-07C6.98633 -0.000284431 6.6183 0.14229 6.33639 0.399676C6.02001 0.689307 5.83966 1.09892 5.83966 1.5284V3.23179C3.04499 3.89282 1 6.43225 1 9.34996C1 12.8248 3.81836 15.65 7.28476 15.65C8.50289 15.65 9.66142 15.2839 10.6786 14.6222C10.8902 14.7307 11.1241 14.7949 11.3663 14.7949L11.4496 14.7918C11.6647 14.7799 11.8747 14.7227 12.0661 14.6239C12.2574 14.5251 12.4258 14.387 12.56 14.2187C13.6482 12.8505 14.2417 11.1546 14.2443 9.40651C14.2423 7.85134 13.7706 6.33305 12.8909 5.05058ZM7.28476 14.1216C4.65745 14.1216 2.5284 11.9872 2.5284 9.34996C2.52859 8.20619 2.94055 7.10071 3.68891 6.23574C4.43727 5.37077 5.47201 4.80412 6.60386 4.63944V9.53642L10.126 13.1694C9.30769 13.7873 8.3102 14.1216 7.28476 14.1216ZM7.36806 8.42528V1.5284C9.15741 1.68989 10.8548 2.39405 12.2329 3.54664L7.36806 8.42528ZM7.5316 9.39504L11.3671 5.55266C12.2424 6.64645 12.7191 8.00564 12.719 9.40651C12.7205 10.8095 12.2437 12.171 11.3671 13.2665L7.5316 9.39504Z" fill="#181D27"/>
</g>
<defs>
<clipPath id="clip0_940_26670">
<rect width="16" height="16" fill="white"/>
</clipPath>
</defs>
</svg>
