<svg width="20" height="20" viewBox="0 0 20 20" fill="none" xmlns="http://www.w3.org/2000/svg">
<path d="M13.3359 17.5V15.8333C13.3359 14.9493 12.9847 14.1014 12.3596 13.4763C11.7345 12.8512 10.8867 12.5 10.0026 12.5H4.16927C3.28522 12.5 2.43737 12.8512 1.81225 13.4763C1.18713 14.1014 0.835938 14.9493 0.835938 15.8333V17.5M16.6693 6.66667V11.6667M19.1693 9.16667H14.1693M10.4193 5.83333C10.4193 7.67428 8.92689 9.16667 7.08594 9.16667C5.24499 9.16667 3.7526 7.67428 3.7526 5.83333C3.7526 3.99238 5.24499 2.5 7.08594 2.5C8.92689 2.5 10.4193 3.99238 10.4193 5.83333Z" stroke="url(#paint0_linear_1075_12502)" stroke-width="1.66667" stroke-linecap="round" stroke-linejoin="round"/>
<path d="M13.3359 17.5V15.8333C13.3359 14.9493 12.9847 14.1014 12.3596 13.4763C11.7345 12.8512 10.8867 12.5 10.0026 12.5H4.16927C3.28522 12.5 2.43737 12.8512 1.81225 13.4763C1.18713 14.1014 0.835938 14.9493 0.835938 15.8333V17.5M16.6693 6.66667V11.6667M19.1693 9.16667H14.1693M10.4193 5.83333C10.4193 7.67428 8.92689 9.16667 7.08594 9.16667C5.24499 9.16667 3.7526 7.67428 3.7526 5.83333C3.7526 3.99238 5.24499 2.5 7.08594 2.5C8.92689 2.5 10.4193 3.99238 10.4193 5.83333Z" stroke="url(#paint1_linear_1075_12502)" stroke-width="1.66667" stroke-linecap="round" stroke-linejoin="round"/>
<defs>
<linearGradient id="paint0_linear_1075_12502" x1="0.835838" y1="9.97492" x2="14.1853" y2="1.81821" gradientUnits="userSpaceOnUse">
<stop stop-color="#003C91"/>
<stop offset="1" stop-color="#0066DC"/>
</linearGradient>
<linearGradient id="paint1_linear_1075_12502" x1="-14.2827" y1="-25.0581" x2="27.8392" y2="-11.4197" gradientUnits="userSpaceOnUse">
<stop offset="0.13" stop-color="#EEAAFD"/>
<stop offset="0.71" stop-color="#8F65F8"/>
<stop offset="1" stop-color="#483185"/>
</linearGradient>
</defs>
</svg>
