<svg width="16" height="16" viewBox="0 0 16 16" fill="none" xmlns="http://www.w3.org/2000/svg">
<path d="M14 9.33464H10C9.82319 9.33464 9.65362 9.2644 9.5286 9.13937C9.40357 9.01435 9.33333 8.84478 9.33333 8.66797C9.33333 8.49116 9.40357 8.32159 9.5286 8.19656C9.65362 8.07154 9.82319 8.0013 10 8.0013H14C14.1768 8.0013 14.3464 8.07154 14.4714 8.19656C14.5964 8.32159 14.6667 8.49116 14.6667 8.66797C14.6667 8.84478 14.5964 9.01435 14.4714 9.13937C14.3464 9.2644 14.1768 9.33464 14 9.33464ZM12 11.3346C11.8232 11.3346 11.6536 11.2644 11.5286 11.1394C11.4036 11.0143 11.3333 10.8448 11.3333 10.668V6.66797C11.3333 6.49116 11.4036 6.32159 11.5286 6.19656C11.6536 6.07154 11.8232 6.0013 12 6.0013C12.1768 6.0013 12.3464 6.07154 12.4714 6.19656C12.5964 6.32159 12.6667 6.49116 12.6667 6.66797V10.668C12.6667 10.8448 12.5964 11.0143 12.4714 11.1394C12.3464 11.2644 12.1768 11.3346 12 11.3346ZM6 4.0013C7.10267 4.0013 8 4.89864 8 6.0013C8 7.10397 7.10267 8.0013 6 8.0013C4.89733 8.0013 4 7.10397 4 6.0013C4 4.89864 4.89733 4.0013 6 4.0013ZM6 2.66797C4.15733 2.66797 2.66667 4.15997 2.66667 6.0013C2.66667 7.84264 4.15733 9.33464 6 9.33464C7.84267 9.33464 9.33333 7.84264 9.33333 6.0013C9.33333 4.15997 7.84267 2.66797 6 2.66797ZM6 11.3346C7.34733 11.3346 8.20067 11.8486 8.522 12.298C8.06667 12.4713 7.20933 12.668 6 12.668C4.67733 12.668 3.86267 12.4646 3.45467 12.3066C3.76067 11.83 4.63933 11.3346 6 11.3346ZM6 10.0013C3.5 10.0013 2 11.3346 2 12.668C2 13.3346 3.5 14.0013 6 14.0013C8.34533 14.0013 10 13.3346 10 12.668C10 11.3346 8.43067 10.0013 6 10.0013Z" fill="#181D27"/>
</svg>
