<svg width="16" height="16" viewBox="0 0 16 16" fill="none" xmlns="http://www.w3.org/2000/svg">
<g clip-path="url(#clip0_940_26647)">
<path d="M5.33073 7.33464C6.21478 7.33464 7.06263 6.98345 7.68775 6.35832C8.31287 5.7332 8.66406 4.88536 8.66406 4.0013C8.66406 3.11725 8.31287 2.2694 7.68775 1.64428C7.06263 1.01916 6.21478 0.667969 5.33073 0.667969C4.44667 0.667969 3.59883 1.01916 2.97371 1.64428C2.34859 2.2694 1.9974 3.11725 1.9974 4.0013C1.9974 4.88536 2.34859 5.7332 2.97371 6.35832C3.59883 6.98345 4.44667 7.33464 5.33073 7.33464ZM5.33073 7.33464C6.67273 7.33464 7.8454 7.8413 8.6794 8.6833M5.33073 7.33464C2.66406 7.33464 0.664062 9.33464 0.664062 12.0013V14.3346C0.664062 14.8869 1.11178 15.3346 1.66406 15.3346H5.33073M15.3307 10.0013L14.0378 8.70841C13.6473 8.31788 13.0141 8.31788 12.6236 8.70841L9.33073 12.0013M11.6641 9.66797L13.6641 11.668M6.66406 13.0013C6.66424 13.4435 6.84007 13.8675 7.15288 14.1801C7.4657 14.4927 7.88986 14.6681 8.33206 14.668C8.77427 14.6678 9.19829 14.492 9.51085 14.1791C9.82341 13.8663 9.99891 13.4422 9.99873 13C9.99855 12.5578 9.82272 12.1337 9.50991 11.8212C9.1971 11.5086 8.77293 11.3331 8.33073 11.3333C7.88853 11.3335 7.4645 11.5093 7.15194 11.8221C6.83938 12.1349 6.66389 12.5591 6.66406 13.0013Z" stroke="#181D27" stroke-width="1.5"/>
</g>
<defs>
<clipPath id="clip0_940_26647">
<rect width="16" height="16" fill="white"/>
</clipPath>
</defs>
</svg>
