<svg width="14" height="10" viewBox="0 0 14 10" fill="none" xmlns="http://www.w3.org/2000/svg">
<path d="M6.48074 9.69979L4.73594 7.90303C4.70919 7.8758 4.68828 7.84361 4.67444 7.80836C4.6606 7.77311 4.65411 7.73551 4.65536 7.69777C4.65531 7.65904 4.66332 7.6207 4.67888 7.58508C4.69444 7.54946 4.71723 7.51731 4.74588 7.49056C5.27548 7.02488 5.96251 6.76724 6.67472 6.76724C7.38692 6.76724 8.07396 7.02488 8.60355 7.49056C8.63094 7.51682 8.6527 7.54815 8.66756 7.58272C8.68242 7.6173 8.69008 7.65443 8.6901 7.69193C8.69135 7.76862 8.6617 7.8427 8.60753 7.89817L6.87168 9.70076C6.84692 9.72671 6.81697 9.74741 6.78368 9.76156C6.7504 9.7757 6.71449 9.78301 6.6782 9.78301C6.64191 9.78301 6.606 9.7757 6.57272 9.76156C6.53943 9.74741 6.50948 9.72671 6.48472 9.70076L6.48074 9.69979ZM9.73559 6.62769C9.70092 6.62757 9.66663 6.62072 9.63469 6.60752C9.60276 6.59433 9.57382 6.57506 9.54957 6.55084C8.77743 5.82406 7.74741 5.41805 6.67571 5.41805C5.60402 5.41805 4.574 5.82406 3.80186 6.55084C3.77752 6.57577 3.74827 6.59561 3.71587 6.60916C3.68347 6.62272 3.64859 6.62971 3.61335 6.62971C3.57811 6.62971 3.54323 6.62272 3.51083 6.60916C3.47843 6.59561 3.44918 6.57577 3.42484 6.55084L2.41517 5.50508C2.36157 5.44978 2.3317 5.3765 2.3317 5.30031C2.3317 5.22412 2.36157 5.15083 2.41517 5.09553C3.5482 3.99954 5.07756 3.38482 6.67124 3.38482C8.26492 3.38482 9.79428 3.99954 10.9273 5.09553C10.9823 5.15013 11.0131 5.22368 11.0131 5.30031C11.0131 5.37693 10.9823 5.45049 10.9273 5.50508L9.93255 6.54792C9.9081 6.57323 9.87866 6.59343 9.846 6.60731C9.81335 6.62119 9.77816 6.62845 9.74255 6.62866L9.73559 6.62769ZM12.0574 4.23169C12.0223 4.23159 11.9876 4.22466 11.9553 4.2113C11.923 4.19794 11.8938 4.17841 11.8693 4.15387C11.1898 3.48191 10.3806 2.94845 9.4888 2.58437C8.59697 2.22029 7.64015 2.03283 6.67372 2.03283C5.7073 2.03283 4.75048 2.22029 3.85865 2.58437C2.96681 2.94845 2.15768 3.48191 1.4781 4.15387C1.45358 4.17862 1.4242 4.19827 1.39172 4.21164C1.35925 4.22502 1.32434 4.23183 1.2891 4.23169C1.25394 4.23142 1.21921 4.22412 1.18705 4.21023C1.15489 4.19635 1.12597 4.17617 1.10208 4.15095L0.0904158 3.11297C0.0362534 3.05751 0.00659353 2.98342 0.00785091 2.90674C0.00711601 2.83073 0.0367383 2.75743 0.0904158 2.70245C0.948534 1.84678 1.97253 1.16705 3.10249 0.703028C4.23245 0.239003 5.44569 0 6.67124 0C7.89678 0 9.11002 0.239003 10.24 0.703028C11.3699 1.16705 12.3939 1.84678 13.2521 2.70245C13.3057 2.75743 13.3354 2.83073 13.3346 2.90674C13.3351 2.98241 13.3055 3.05531 13.2521 3.11005L12.2434 4.15095C12.2194 4.17642 12.1904 4.19682 12.158 4.21087C12.1257 4.22493 12.0908 4.23234 12.0554 4.23266L12.0574 4.23169Z" fill="#181D27"/>
</svg>
